<?xml version="1.0" encoding="UTF-8"?><svg xmlns="http://www.w3.org/2000/svg" xmlns:xlink="http://www.w3.org/1999/xlink" fill-opacity="1" color-rendering="auto" color-interpolation="auto" stroke="black" text-rendering="auto" stroke-linecap="square" width="891" stroke-miterlimit="10" stroke-opacity="1" shape-rendering="auto" fill="black" stroke-dasharray="none" font-weight="normal" stroke-width="1" height="401" font-family="'Dialog'" font-style="normal" stroke-linejoin="miter" font-size="12" stroke-dashoffset="0" image-rendering="auto">
  <!--Generated by ySVG 2.5-->
  <defs id="genericDefs"/>
  <g>
    <defs id="defs1">
      <clipPath clipPathUnits="userSpaceOnUse" id="clipPath1">
        <path d="M0 0 L891 0 L891 401 L0 401 L0 0 Z"/>
      </clipPath>
      <clipPath clipPathUnits="userSpaceOnUse" id="clipPath2">
        <path d="M-205 -170 L686 -170 L686 231 L-205 231 L-205 -170 Z"/>
      </clipPath>
    </defs>
    <g fill="white" text-rendering="geometricPrecision" shape-rendering="geometricPrecision" transform="translate(205,170)" stroke="white">
      <rect x="-205" width="891" height="401" y="-170" clip-path="url(#clipPath2)" stroke="none"/>
    </g>
    <g fill="rgb(204,255,204)" text-rendering="geometricPrecision" shape-rendering="geometricPrecision" transform="matrix(1,0,0,1,205,170)" stroke="rgb(204,255,204)">
      <ellipse rx="19.5" ry="14.5" clip-path="url(#clipPath2)" cx="19.5" cy="168.5" stroke="none"/>
    </g>
    <g text-rendering="geometricPrecision" stroke-miterlimit="1.45" shape-rendering="geometricPrecision" font-family="sans-serif" transform="matrix(1,0,0,1,205,170)" stroke-linecap="butt">
      <text x="16.1631" xml:space="preserve" y="173.2139" clip-path="url(#clipPath2)" stroke="none">0</text>
      <ellipse rx="19.5" fill="none" ry="14.5" clip-path="url(#clipPath2)" cx="19.5" cy="168.5"/>
    </g>
    <g fill="rgb(204,255,204)" text-rendering="geometricPrecision" shape-rendering="geometricPrecision" transform="matrix(1,0,0,1,205,170)" stroke="rgb(204,255,204)">
      <ellipse rx="19.5" ry="14.5" clip-path="url(#clipPath2)" cx="98.5" cy="168.5" stroke="none"/>
    </g>
    <g text-rendering="geometricPrecision" stroke-miterlimit="1.45" shape-rendering="geometricPrecision" font-family="sans-serif" transform="matrix(1,0,0,1,205,170)" stroke-linecap="butt">
      <text x="95.1631" xml:space="preserve" y="173.2139" clip-path="url(#clipPath2)" stroke="none">1</text>
      <ellipse rx="19.5" fill="none" ry="14.5" clip-path="url(#clipPath2)" cx="98.5" cy="168.5"/>
    </g>
    <g fill="rgb(204,255,204)" text-rendering="geometricPrecision" shape-rendering="geometricPrecision" transform="matrix(1,0,0,1,205,170)" stroke="rgb(204,255,204)">
      <ellipse rx="19.5" ry="14.5" clip-path="url(#clipPath2)" cx="177.5" cy="168.5" stroke="none"/>
    </g>
    <g text-rendering="geometricPrecision" stroke-miterlimit="1.45" shape-rendering="geometricPrecision" font-family="sans-serif" transform="matrix(1,0,0,1,205,170)" stroke-linecap="butt">
      <text x="174.1631" xml:space="preserve" y="173.2139" clip-path="url(#clipPath2)" stroke="none">2</text>
      <ellipse rx="19.5" fill="none" ry="14.5" clip-path="url(#clipPath2)" cx="177.5" cy="168.5"/>
    </g>
    <g fill="rgb(204,255,204)" text-rendering="geometricPrecision" shape-rendering="geometricPrecision" transform="matrix(1,0,0,1,205,170)" stroke="rgb(204,255,204)">
      <ellipse rx="19.5" ry="14.5" clip-path="url(#clipPath2)" cx="256.5" cy="168.5" stroke="none"/>
    </g>
    <g text-rendering="geometricPrecision" stroke-miterlimit="1.45" shape-rendering="geometricPrecision" font-family="sans-serif" transform="matrix(1,0,0,1,205,170)" stroke-linecap="butt">
      <text x="253.1631" xml:space="preserve" y="173.2139" clip-path="url(#clipPath2)" stroke="none">3</text>
      <ellipse rx="19.5" fill="none" ry="14.5" clip-path="url(#clipPath2)" cx="256.5" cy="168.5"/>
    </g>
    <g fill="rgb(204,255,204)" text-rendering="geometricPrecision" shape-rendering="geometricPrecision" transform="matrix(1,0,0,1,205,170)" stroke="rgb(204,255,204)">
      <ellipse rx="19.5" ry="14.5" clip-path="url(#clipPath2)" cx="335.5" cy="168.5" stroke="none"/>
    </g>
    <g text-rendering="geometricPrecision" stroke-miterlimit="1.45" shape-rendering="geometricPrecision" font-family="sans-serif" transform="matrix(1,0,0,1,205,170)" stroke-linecap="butt">
      <text x="332.1631" xml:space="preserve" y="173.2139" clip-path="url(#clipPath2)" stroke="none">4</text>
      <ellipse rx="19.5" fill="none" ry="14.5" clip-path="url(#clipPath2)" cx="335.5" cy="168.5"/>
    </g>
    <g fill="rgb(204,255,204)" text-rendering="geometricPrecision" shape-rendering="geometricPrecision" transform="matrix(1,0,0,1,205,170)" stroke="rgb(204,255,204)">
      <ellipse rx="19.5" ry="14.5" clip-path="url(#clipPath2)" cx="414.5" cy="168.5" stroke="none"/>
    </g>
    <g text-rendering="geometricPrecision" stroke-miterlimit="1.45" shape-rendering="geometricPrecision" font-family="sans-serif" transform="matrix(1,0,0,1,205,170)" stroke-linecap="butt">
      <text x="411.1631" xml:space="preserve" y="173.2139" clip-path="url(#clipPath2)" stroke="none">5</text>
      <ellipse rx="19.5" fill="none" ry="14.5" clip-path="url(#clipPath2)" cx="414.5" cy="168.5"/>
    </g>
    <g fill="rgb(204,255,204)" text-rendering="geometricPrecision" shape-rendering="geometricPrecision" transform="matrix(1,0,0,1,205,170)" stroke="rgb(204,255,204)">
      <ellipse rx="19.5" ry="14.5" clip-path="url(#clipPath2)" cx="493.5" cy="168.5" stroke="none"/>
    </g>
    <g text-rendering="geometricPrecision" stroke-miterlimit="1.45" shape-rendering="geometricPrecision" font-family="sans-serif" transform="matrix(1,0,0,1,205,170)" stroke-linecap="butt">
      <text x="490.1631" xml:space="preserve" y="173.2139" clip-path="url(#clipPath2)" stroke="none">6</text>
      <ellipse rx="19.5" fill="none" ry="14.5" clip-path="url(#clipPath2)" cx="493.5" cy="168.5"/>
    </g>
    <g fill="rgb(204,255,204)" text-rendering="geometricPrecision" shape-rendering="geometricPrecision" transform="matrix(1,0,0,1,205,170)" stroke="rgb(204,255,204)">
      <ellipse rx="19.5" ry="14.5" clip-path="url(#clipPath2)" cx="572.5" cy="168.5" stroke="none"/>
    </g>
    <g text-rendering="geometricPrecision" stroke-miterlimit="1.45" shape-rendering="geometricPrecision" font-family="sans-serif" transform="matrix(1,0,0,1,205,170)" stroke-linecap="butt">
      <text x="569.1631" xml:space="preserve" y="173.2139" clip-path="url(#clipPath2)" stroke="none">7</text>
      <ellipse rx="19.5" fill="none" ry="14.5" clip-path="url(#clipPath2)" cx="572.5" cy="168.5"/>
    </g>
    <g fill="rgb(204,255,204)" text-rendering="geometricPrecision" shape-rendering="geometricPrecision" transform="matrix(1,0,0,1,205,170)" stroke="rgb(204,255,204)">
      <ellipse rx="19.5" ry="14.5" clip-path="url(#clipPath2)" cx="651.5" cy="168.5" stroke="none"/>
    </g>
    <g text-rendering="geometricPrecision" stroke-miterlimit="1.45" shape-rendering="geometricPrecision" font-family="sans-serif" transform="matrix(1,0,0,1,205,170)" stroke-linecap="butt">
      <text x="648.1631" xml:space="preserve" y="173.2139" clip-path="url(#clipPath2)" stroke="none">8</text>
      <ellipse rx="19.5" fill="none" ry="14.5" clip-path="url(#clipPath2)" cx="651.5" cy="168.5"/>
    </g>
    <g fill="rgb(204,255,204)" text-rendering="geometricPrecision" shape-rendering="geometricPrecision" transform="matrix(1,0,0,1,205,170)" stroke="rgb(204,255,204)">
      <ellipse rx="19.5" ry="14.5" clip-path="url(#clipPath2)" cx="572.5" cy="105.0977" stroke="none"/>
    </g>
    <g text-rendering="geometricPrecision" stroke-miterlimit="1.45" shape-rendering="geometricPrecision" font-family="sans-serif" transform="matrix(1,0,0,1,205,170)" stroke-linecap="butt">
      <text x="569.1631" xml:space="preserve" y="109.8115" clip-path="url(#clipPath2)" stroke="none">7</text>
      <ellipse rx="19.5" fill="none" ry="14.5" clip-path="url(#clipPath2)" cx="572.5" cy="105.0977"/>
    </g>
    <g fill="rgb(204,255,204)" text-rendering="geometricPrecision" shape-rendering="geometricPrecision" transform="matrix(1,0,0,1,205,170)" stroke="rgb(204,255,204)">
      <ellipse rx="19.5" ry="14.5" clip-path="url(#clipPath2)" cx="651.5" cy="105.0977" stroke="none"/>
    </g>
    <g text-rendering="geometricPrecision" stroke-miterlimit="1.45" shape-rendering="geometricPrecision" font-family="sans-serif" transform="matrix(1,0,0,1,205,170)" stroke-linecap="butt">
      <text x="648.1631" xml:space="preserve" y="109.8115" clip-path="url(#clipPath2)" stroke="none">8</text>
      <ellipse rx="19.5" fill="none" ry="14.5" clip-path="url(#clipPath2)" cx="651.5" cy="105.0977"/>
    </g>
    <g fill="rgb(204,255,204)" text-rendering="geometricPrecision" shape-rendering="geometricPrecision" transform="matrix(1,0,0,1,205,170)" stroke="rgb(204,255,204)">
      <ellipse rx="19.5" ry="14.5" clip-path="url(#clipPath2)" cx="414.5" cy="41.6953" stroke="none"/>
    </g>
    <g text-rendering="geometricPrecision" stroke-miterlimit="1.45" shape-rendering="geometricPrecision" font-family="sans-serif" transform="matrix(1,0,0,1,205,170)" stroke-linecap="butt">
      <text x="411.1631" xml:space="preserve" y="46.4092" clip-path="url(#clipPath2)" stroke="none">5</text>
      <ellipse rx="19.5" fill="none" ry="14.5" clip-path="url(#clipPath2)" cx="414.5" cy="41.6953"/>
    </g>
    <g fill="rgb(204,255,204)" text-rendering="geometricPrecision" shape-rendering="geometricPrecision" transform="matrix(1,0,0,1,205,170)" stroke="rgb(204,255,204)">
      <ellipse rx="19.5" ry="14.5" clip-path="url(#clipPath2)" cx="493.5" cy="41.6953" stroke="none"/>
    </g>
    <g text-rendering="geometricPrecision" stroke-miterlimit="1.45" shape-rendering="geometricPrecision" font-family="sans-serif" transform="matrix(1,0,0,1,205,170)" stroke-linecap="butt">
      <text x="490.1631" xml:space="preserve" y="46.4092" clip-path="url(#clipPath2)" stroke="none">6</text>
      <ellipse rx="19.5" fill="none" ry="14.5" clip-path="url(#clipPath2)" cx="493.5" cy="41.6953"/>
    </g>
    <g fill="rgb(204,255,204)" text-rendering="geometricPrecision" shape-rendering="geometricPrecision" transform="matrix(1,0,0,1,205,170)" stroke="rgb(204,255,204)">
      <ellipse rx="19.5" ry="14.5" clip-path="url(#clipPath2)" cx="572.5" cy="41.6953" stroke="none"/>
    </g>
    <g text-rendering="geometricPrecision" stroke-miterlimit="1.45" shape-rendering="geometricPrecision" font-family="sans-serif" transform="matrix(1,0,0,1,205,170)" stroke-linecap="butt">
      <text x="569.1631" xml:space="preserve" y="46.4092" clip-path="url(#clipPath2)" stroke="none">7</text>
      <ellipse rx="19.5" fill="none" ry="14.5" clip-path="url(#clipPath2)" cx="572.5" cy="41.6953"/>
    </g>
    <g fill="rgb(255,102,51)" text-rendering="geometricPrecision" shape-rendering="geometricPrecision" transform="matrix(1,0,0,1,205,170)" stroke="rgb(255,102,51)">
      <ellipse rx="19.5" ry="14.5" clip-path="url(#clipPath2)" cx="651.5" cy="41.6953" stroke="none"/>
    </g>
    <g text-rendering="geometricPrecision" stroke-miterlimit="1.45" shape-rendering="geometricPrecision" font-family="sans-serif" transform="matrix(1,0,0,1,205,170)" stroke-linecap="butt">
      <text x="648.1631" xml:space="preserve" y="46.4092" clip-path="url(#clipPath2)" stroke="none">8</text>
      <ellipse rx="19.5" fill="none" ry="14.5" clip-path="url(#clipPath2)" cx="651.5" cy="41.6953"/>
    </g>
    <g fill="rgb(204,255,204)" text-rendering="geometricPrecision" shape-rendering="geometricPrecision" transform="matrix(1,0,0,1,205,170)" stroke="rgb(204,255,204)">
      <ellipse rx="19.5" ry="14.5" clip-path="url(#clipPath2)" cx="256.5" cy="-21.707" stroke="none"/>
    </g>
    <g text-rendering="geometricPrecision" stroke-miterlimit="1.45" shape-rendering="geometricPrecision" font-family="sans-serif" transform="matrix(1,0,0,1,205,170)" stroke-linecap="butt">
      <text x="253.1631" xml:space="preserve" y="-16.9932" clip-path="url(#clipPath2)" stroke="none">3</text>
      <ellipse rx="19.5" fill="none" ry="14.5" clip-path="url(#clipPath2)" cx="256.5" cy="-21.707"/>
    </g>
    <g fill="rgb(204,255,204)" text-rendering="geometricPrecision" shape-rendering="geometricPrecision" transform="matrix(1,0,0,1,205,170)" stroke="rgb(204,255,204)">
      <ellipse rx="19.5" ry="14.5" clip-path="url(#clipPath2)" cx="335.5" cy="-21.707" stroke="none"/>
    </g>
    <g text-rendering="geometricPrecision" stroke-miterlimit="1.45" shape-rendering="geometricPrecision" font-family="sans-serif" transform="matrix(1,0,0,1,205,170)" stroke-linecap="butt">
      <text x="332.1631" xml:space="preserve" y="-16.9932" clip-path="url(#clipPath2)" stroke="none">4</text>
      <ellipse rx="19.5" fill="none" ry="14.5" clip-path="url(#clipPath2)" cx="335.5" cy="-21.707"/>
    </g>
    <g fill="rgb(204,255,204)" text-rendering="geometricPrecision" shape-rendering="geometricPrecision" transform="matrix(1,0,0,1,205,170)" stroke="rgb(204,255,204)">
      <ellipse rx="19.5" ry="14.5" clip-path="url(#clipPath2)" cx="414.5" cy="-21.707" stroke="none"/>
    </g>
    <g text-rendering="geometricPrecision" stroke-miterlimit="1.45" shape-rendering="geometricPrecision" font-family="sans-serif" transform="matrix(1,0,0,1,205,170)" stroke-linecap="butt">
      <text x="411.1631" xml:space="preserve" y="-16.9932" clip-path="url(#clipPath2)" stroke="none">5</text>
      <ellipse rx="19.5" fill="none" ry="14.5" clip-path="url(#clipPath2)" cx="414.5" cy="-21.707"/>
    </g>
    <g fill="rgb(255,102,51)" text-rendering="geometricPrecision" shape-rendering="geometricPrecision" transform="matrix(1,0,0,1,205,170)" stroke="rgb(255,102,51)">
      <ellipse rx="19.5" ry="14.5" clip-path="url(#clipPath2)" cx="493.5" cy="-21.707" stroke="none"/>
    </g>
    <g text-rendering="geometricPrecision" stroke-miterlimit="1.45" shape-rendering="geometricPrecision" font-family="sans-serif" transform="matrix(1,0,0,1,205,170)" stroke-linecap="butt">
      <text x="490.1631" xml:space="preserve" y="-16.9932" clip-path="url(#clipPath2)" stroke="none">6</text>
      <ellipse rx="19.5" fill="none" ry="14.5" clip-path="url(#clipPath2)" cx="493.5" cy="-21.707"/>
    </g>
    <g fill="rgb(255,102,51)" text-rendering="geometricPrecision" shape-rendering="geometricPrecision" transform="matrix(1,0,0,1,205,170)" stroke="rgb(255,102,51)">
      <ellipse rx="19.5" ry="14.5" clip-path="url(#clipPath2)" cx="572.5" cy="-21.707" stroke="none"/>
    </g>
    <g text-rendering="geometricPrecision" stroke-miterlimit="1.45" shape-rendering="geometricPrecision" font-family="sans-serif" transform="matrix(1,0,0,1,205,170)" stroke-linecap="butt">
      <text x="569.1631" xml:space="preserve" y="-16.9932" clip-path="url(#clipPath2)" stroke="none">7</text>
      <ellipse rx="19.5" fill="none" ry="14.5" clip-path="url(#clipPath2)" cx="572.5" cy="-21.707"/>
    </g>
    <g fill="rgb(204,255,204)" text-rendering="geometricPrecision" shape-rendering="geometricPrecision" transform="matrix(1,0,0,1,205,170)" stroke="rgb(204,255,204)">
      <ellipse rx="19.5" ry="14.5" clip-path="url(#clipPath2)" cx="98.5" cy="-85.1094" stroke="none"/>
    </g>
    <g text-rendering="geometricPrecision" stroke-miterlimit="1.45" shape-rendering="geometricPrecision" font-family="sans-serif" transform="matrix(1,0,0,1,205,170)" stroke-linecap="butt">
      <text x="95.1631" xml:space="preserve" y="-80.3955" clip-path="url(#clipPath2)" stroke="none">1</text>
      <ellipse rx="19.5" fill="none" ry="14.5" clip-path="url(#clipPath2)" cx="98.5" cy="-85.1094"/>
    </g>
    <g fill="rgb(204,255,204)" text-rendering="geometricPrecision" shape-rendering="geometricPrecision" transform="matrix(1,0,0,1,205,170)" stroke="rgb(204,255,204)">
      <ellipse rx="19.5" ry="14.5" clip-path="url(#clipPath2)" cx="177.5" cy="-85.1094" stroke="none"/>
    </g>
    <g text-rendering="geometricPrecision" stroke-miterlimit="1.45" shape-rendering="geometricPrecision" font-family="sans-serif" transform="matrix(1,0,0,1,205,170)" stroke-linecap="butt">
      <text x="174.1631" xml:space="preserve" y="-80.3955" clip-path="url(#clipPath2)" stroke="none">2</text>
      <ellipse rx="19.5" fill="none" ry="14.5" clip-path="url(#clipPath2)" cx="177.5" cy="-85.1094"/>
    </g>
    <g fill="rgb(204,255,204)" text-rendering="geometricPrecision" shape-rendering="geometricPrecision" transform="matrix(1,0,0,1,205,170)" stroke="rgb(204,255,204)">
      <ellipse rx="19.5" ry="14.5" clip-path="url(#clipPath2)" cx="256.5" cy="-85.1094" stroke="none"/>
    </g>
    <g text-rendering="geometricPrecision" stroke-miterlimit="1.45" shape-rendering="geometricPrecision" font-family="sans-serif" transform="matrix(1,0,0,1,205,170)" stroke-linecap="butt">
      <text x="253.1631" xml:space="preserve" y="-80.3955" clip-path="url(#clipPath2)" stroke="none">3</text>
      <ellipse rx="19.5" fill="none" ry="14.5" clip-path="url(#clipPath2)" cx="256.5" cy="-85.1094"/>
    </g>
    <g fill="rgb(255,102,51)" text-rendering="geometricPrecision" shape-rendering="geometricPrecision" transform="matrix(1,0,0,1,205,170)" stroke="rgb(255,102,51)">
      <ellipse rx="19.5" ry="14.5" clip-path="url(#clipPath2)" cx="335.5" cy="-85.1094" stroke="none"/>
    </g>
    <g text-rendering="geometricPrecision" stroke-miterlimit="1.45" shape-rendering="geometricPrecision" font-family="sans-serif" transform="matrix(1,0,0,1,205,170)" stroke-linecap="butt">
      <text x="332.1631" xml:space="preserve" y="-80.3955" clip-path="url(#clipPath2)" stroke="none">4</text>
      <ellipse rx="19.5" fill="none" ry="14.5" clip-path="url(#clipPath2)" cx="335.5" cy="-85.1094"/>
    </g>
    <g fill="rgb(204,255,204)" text-rendering="geometricPrecision" shape-rendering="geometricPrecision" transform="matrix(1,0,0,1,205,170)" stroke="rgb(204,255,204)">
      <ellipse rx="19.5" ry="14.5" clip-path="url(#clipPath2)" cx="19.5" cy="-140.1094" stroke="none"/>
    </g>
    <g text-rendering="geometricPrecision" stroke-miterlimit="1.45" shape-rendering="geometricPrecision" font-family="sans-serif" transform="matrix(1,0,0,1,205,170)" stroke-linecap="butt">
      <text x="16.1631" xml:space="preserve" y="-135.3955" clip-path="url(#clipPath2)" stroke="none">0</text>
      <ellipse rx="19.5" fill="none" ry="14.5" clip-path="url(#clipPath2)" cx="19.5" cy="-140.1094"/>
    </g>
    <g fill="rgb(204,255,204)" text-rendering="geometricPrecision" shape-rendering="geometricPrecision" transform="matrix(1,0,0,1,205,170)" stroke="rgb(204,255,204)">
      <ellipse rx="19.5" ry="14.5" clip-path="url(#clipPath2)" cx="98.5" cy="-140.1094" stroke="none"/>
    </g>
    <g text-rendering="geometricPrecision" stroke-miterlimit="1.45" shape-rendering="geometricPrecision" font-family="sans-serif" transform="matrix(1,0,0,1,205,170)" stroke-linecap="butt">
      <text x="95.1631" xml:space="preserve" y="-135.3955" clip-path="url(#clipPath2)" stroke="none">1</text>
      <ellipse rx="19.5" fill="none" ry="14.5" clip-path="url(#clipPath2)" cx="98.5" cy="-140.1094"/>
    </g>
    <g fill="rgb(255,102,51)" text-rendering="geometricPrecision" shape-rendering="geometricPrecision" transform="matrix(1,0,0,1,205,170)" stroke="rgb(255,102,51)">
      <ellipse rx="19.5" ry="14.5" clip-path="url(#clipPath2)" cx="177.5" cy="-140.1094" stroke="none"/>
    </g>
    <g text-rendering="geometricPrecision" stroke-miterlimit="1.45" shape-rendering="geometricPrecision" font-family="sans-serif" transform="matrix(1,0,0,1,205,170)" stroke-linecap="butt">
      <text x="174.1631" xml:space="preserve" y="-135.3955" clip-path="url(#clipPath2)" stroke="none">2</text>
      <ellipse rx="19.5" fill="none" ry="14.5" clip-path="url(#clipPath2)" cx="177.5" cy="-140.1094"/>
      <text x="-181.918" xml:space="preserve" y="165.8633" clip-path="url(#clipPath2)" stroke="none">emma:streamStatus="complete"</text>
      <text x="-181.918" xml:space="preserve" y="180.5645" clip-path="url(#clipPath2)" stroke="none">emma:streamSeqNum="5"</text>
      <text x="-167.583" xml:space="preserve" y="110.4609" clip-path="url(#clipPath2)" stroke="none">emma:streamStatus="end"</text>
      <text x="-167.583" xml:space="preserve" y="125.1621" clip-path="url(#clipPath2)" stroke="none">emma:streamSeqNum="4"</text>
      <text x="-187.584" xml:space="preserve" y="-24.3438" clip-path="url(#clipPath2)" stroke="none">emma:streamStatus="in-progress"</text>
      <text x="-187.584" xml:space="preserve" y="-9.6426" clip-path="url(#clipPath2)" stroke="none">emma:streamSeqNum="2"</text>
      <text x="-187.584" xml:space="preserve" y="39.0586" clip-path="url(#clipPath2)" stroke="none">emma:streamStatus="in-progress"</text>
      <text x="-187.584" xml:space="preserve" y="53.7598" clip-path="url(#clipPath2)" stroke="none">emma:streamSeqNum="3"</text>
      <text x="-187.584" xml:space="preserve" y="-87.7461" clip-path="url(#clipPath2)" stroke="none">emma:streamStatus="in-progress"</text>
      <text x="-187.584" xml:space="preserve" y="-73.0449" clip-path="url(#clipPath2)" stroke="none">emma:streamSeqNum="1"</text>
      <text x="-172.2529" xml:space="preserve" y="-140.5449" clip-path="url(#clipPath2)" stroke="none">emma:streamStatus="begin"</text>
      <text x="-172.2529" xml:space="preserve" y="-125.8438" clip-path="url(#clipPath2)" stroke="none">emma:streamSeqNum="0"</text>
      <path fill="none" d="M39 168.5 L71 168.5" clip-path="url(#clipPath2)"/>
      <path d="M79 168.5 L67 163.5 L70 168.5 L67 173.5 Z" clip-path="url(#clipPath2)" stroke="none"/>
      <text x="53" xml:space="preserve" y="195.8633" font-weight="bold" clip-path="url(#clipPath2)" stroke="none">Hi</text>
      <text x="53.9961" xml:space="preserve" y="210.5645" font-weight="bold" clip-path="url(#clipPath2)" stroke="none">.9</text>
      <path fill="none" d="M118 168.5 L150 168.5" clip-path="url(#clipPath2)"/>
      <path d="M158 168.5 L146 163.5 L149 168.5 L146 173.5 Z" clip-path="url(#clipPath2)" stroke="none"/>
      <text x="127.6611" xml:space="preserve" y="195.8633" font-weight="bold" clip-path="url(#clipPath2)" stroke="none">Joe</text>
      <text x="132.9961" xml:space="preserve" y="210.5645" font-weight="bold" clip-path="url(#clipPath2)" stroke="none">.7</text>
      <path fill="none" d="M197 168.5 L229 168.5" clip-path="url(#clipPath2)"/>
      <path d="M237 168.5 L225 163.5 L228 168.5 L225 173.5 Z" clip-path="url(#clipPath2)" stroke="none"/>
      <text x="208" xml:space="preserve" y="195.8633" font-weight="bold" clip-path="url(#clipPath2)" stroke="none">the</text>
      <text x="211.9961" xml:space="preserve" y="210.5645" font-weight="bold" clip-path="url(#clipPath2)" stroke="none">.9</text>
      <path fill="none" d="M276 168.5 L308 168.5" clip-path="url(#clipPath2)"/>
      <path d="M316 168.5 L304 163.5 L307 168.5 L304 173.5 Z" clip-path="url(#clipPath2)" stroke="none"/>
      <text x="273.4961" xml:space="preserve" y="195.8633" font-weight="bold" clip-path="url(#clipPath2)" stroke="none">meeting</text>
      <text x="291.4961" xml:space="preserve" y="210.5645" font-weight="bold" clip-path="url(#clipPath2)" stroke="none">.9</text>
      <path fill="none" d="M355 168.5 L387 168.5" clip-path="url(#clipPath2)"/>
      <path d="M395 168.5 L383 163.5 L386 168.5 L383 173.5 Z" clip-path="url(#clipPath2)" stroke="none"/>
      <text x="364.6611" xml:space="preserve" y="195.8633" font-weight="bold" clip-path="url(#clipPath2)" stroke="none">has</text>
      <text x="366.6592" xml:space="preserve" y="210.5645" font-weight="bold" clip-path="url(#clipPath2)" stroke="none">.89</text>
      <path fill="none" d="M434 168.5 L466 168.5" clip-path="url(#clipPath2)"/>
      <path d="M474 168.5 L462 163.5 L465 168.5 L462 173.5 Z" clip-path="url(#clipPath2)" stroke="none"/>
      <text x="442.0029" xml:space="preserve" y="195.8633" font-weight="bold" clip-path="url(#clipPath2)" stroke="none">now</text>
      <text x="445.6592" xml:space="preserve" y="210.5645" font-weight="bold" clip-path="url(#clipPath2)" stroke="none">.95</text>
      <path fill="none" d="M513 168.5 L545 168.5" clip-path="url(#clipPath2)"/>
      <path d="M553 168.5 L541 163.5 L544 168.5 L541 173.5 Z" clip-path="url(#clipPath2)" stroke="none"/>
      <text x="514.1611" xml:space="preserve" y="195.8633" font-weight="bold" clip-path="url(#clipPath2)" stroke="none">moved</text>
      <text x="525.1592" xml:space="preserve" y="210.5645" font-weight="bold" clip-path="url(#clipPath2)" stroke="none">.91</text>
      <path fill="none" d="M592 168.5 L624 168.5" clip-path="url(#clipPath2)"/>
      <path d="M632 168.5 L620 163.5 L623 168.5 L620 173.5 Z" clip-path="url(#clipPath2)" stroke="none"/>
      <text x="580.8271" xml:space="preserve" y="195.8633" font-weight="bold" clip-path="url(#clipPath2)" stroke="none">downstairs</text>
      <text x="607.4961" xml:space="preserve" y="210.5645" font-weight="bold" clip-path="url(#clipPath2)" stroke="none">.8</text>
      <path fill="none" d="M592 105.0977 L624 105.0977" clip-path="url(#clipPath2)"/>
      <path d="M632 105.0977 L620 100.0977 L623 105.0977 L620 110.0977 Z" clip-path="url(#clipPath2)" stroke="none"/>
      <text x="580.8271" xml:space="preserve" y="132.4609" font-weight="bold" clip-path="url(#clipPath2)" stroke="none">downstairs</text>
      <text x="607.4961" xml:space="preserve" y="147.1621" font-weight="bold" clip-path="url(#clipPath2)" stroke="none">.9</text>
      <path fill="none" d="M434 41.6953 L466 41.6953" clip-path="url(#clipPath2)"/>
      <path d="M474 41.6953 L462 36.6953 L465 41.6953 L462 46.6953 Z" clip-path="url(#clipPath2)" stroke="none"/>
      <text x="442.0029" xml:space="preserve" y="69.0586" font-weight="bold" clip-path="url(#clipPath2)" stroke="none">now</text>
      <text x="445.6592" xml:space="preserve" y="83.7598" font-weight="bold" clip-path="url(#clipPath2)" stroke="none">.95</text>
      <path fill="none" d="M513 41.6953 L545 41.6953" clip-path="url(#clipPath2)"/>
      <path d="M553 41.6953 L541 36.6953 L544 41.6953 L541 46.6953 Z" clip-path="url(#clipPath2)" stroke="none"/>
      <text x="514.1611" xml:space="preserve" y="69.0586" font-weight="bold" clip-path="url(#clipPath2)" stroke="none">moved</text>
      <text x="525.1592" xml:space="preserve" y="83.7598" font-weight="bold" clip-path="url(#clipPath2)" stroke="none">.91</text>
      <path fill="none" d="M592 41.6953 L624 41.6953" clip-path="url(#clipPath2)"/>
      <path d="M632 41.6953 L620 36.6953 L623 41.6953 L620 46.6953 Z" clip-path="url(#clipPath2)" stroke="none"/>
      <text x="606.9961" xml:space="preserve" y="69.0586" clip-path="url(#clipPath2)" stroke="none">to</text>
      <text x="606.9961" xml:space="preserve" y="83.7598" clip-path="url(#clipPath2)" stroke="none">.5</text>
      <path fill="none" d="M276 -21.707 L308 -21.707" clip-path="url(#clipPath2)"/>
      <path d="M316 -21.707 L304 -26.707 L307 -21.707 L304 -16.707 Z" clip-path="url(#clipPath2)" stroke="none"/>
      <text x="273.4961" xml:space="preserve" y="5.6562" font-weight="bold" clip-path="url(#clipPath2)" stroke="none">meeting</text>
      <text x="288.1592" xml:space="preserve" y="20.3574" font-weight="bold" clip-path="url(#clipPath2)" stroke="none">.95</text>
      <path fill="none" d="M355 -21.707 L387 -21.707" clip-path="url(#clipPath2)"/>
      <path d="M395 -21.707 L383 -26.707 L386 -21.707 L383 -16.707 Z" clip-path="url(#clipPath2)" stroke="none"/>
      <text x="364.6611" xml:space="preserve" y="5.6562" font-weight="bold" clip-path="url(#clipPath2)" stroke="none">has</text>
      <text x="366.6592" xml:space="preserve" y="20.3574" font-weight="bold" clip-path="url(#clipPath2)" stroke="none">.91</text>
      <path fill="none" d="M434 -21.707 L466 -21.707" clip-path="url(#clipPath2)"/>
      <path d="M474 -21.707 L462 -26.707 L465 -21.707 L462 -16.707 Z" clip-path="url(#clipPath2)" stroke="none"/>
      <text x="434.4932" xml:space="preserve" y="5.6562" clip-path="url(#clipPath2)" stroke="none">remove</text>
      <text x="446.1592" xml:space="preserve" y="20.3574" clip-path="url(#clipPath2)" stroke="none">.60</text>
      <path fill="none" d="M513 -21.707 L545 -21.707" clip-path="url(#clipPath2)"/>
      <path d="M553 -21.707 L541 -26.707 L544 -21.707 L541 -16.707 Z" clip-path="url(#clipPath2)" stroke="none"/>
      <text x="523.6631" xml:space="preserve" y="5.6562" clip-path="url(#clipPath2)" stroke="none">two</text>
      <text x="524.6592" xml:space="preserve" y="20.3574" clip-path="url(#clipPath2)" stroke="none">.78</text>
      <path fill="none" d="M118 -85.1094 L150 -85.1094" clip-path="url(#clipPath2)"/>
      <path d="M158 -85.1094 L146 -90.1094 L149 -85.1094 L146 -80.1094 Z" clip-path="url(#clipPath2)" stroke="none"/>
      <text x="127.6611" xml:space="preserve" y="-57.7461" font-weight="bold" clip-path="url(#clipPath2)" stroke="none">Joe</text>
      <text x="132.9961" xml:space="preserve" y="-43.0449" font-weight="bold" clip-path="url(#clipPath2)" stroke="none">.9</text>
      <path fill="none" d="M197 -85.1094 L229 -85.1094" clip-path="url(#clipPath2)"/>
      <path d="M237 -85.1094 L225 -90.1094 L228 -85.1094 L225 -80.1094 Z" clip-path="url(#clipPath2)" stroke="none"/>
      <text x="208" xml:space="preserve" y="-57.7461" font-weight="bold" clip-path="url(#clipPath2)" stroke="none">the</text>
      <text x="208.6592" xml:space="preserve" y="-43.0449" font-weight="bold" clip-path="url(#clipPath2)" stroke="none">.77</text>
      <path fill="none" d="M276 -85.1094 L308 -85.1094" clip-path="url(#clipPath2)"/>
      <path d="M316 -85.1094 L304 -90.1094 L307 -85.1094 L304 -80.1094 Z" clip-path="url(#clipPath2)" stroke="none"/>
      <text x="274.1523" xml:space="preserve" y="-57.7461" clip-path="url(#clipPath2)" stroke="none">tweeting</text>
      <text x="288.1592" xml:space="preserve" y="-43.0449" clip-path="url(#clipPath2)" stroke="none">.91</text>
      <path fill="none" d="M39 -140.1094 L71 -140.1094" clip-path="url(#clipPath2)"/>
      <path d="M79 -140.1094 L67 -145.1094 L70 -140.1094 L67 -135.1094 Z" clip-path="url(#clipPath2)" stroke="none"/>
      <text x="53" xml:space="preserve" y="-112.7461" font-weight="bold" clip-path="url(#clipPath2)" stroke="none">Hi</text>
      <text x="53.9961" xml:space="preserve" y="-98.0449" font-weight="bold" clip-path="url(#clipPath2)" stroke="none">.9</text>
      <path fill="none" d="M118 -140.1094 L150 -140.1094" clip-path="url(#clipPath2)"/>
      <path d="M158 -140.1094 L146 -145.1094 L149 -140.1094 L146 -135.1094 Z" clip-path="url(#clipPath2)" stroke="none"/>
      <text x="128.3262" xml:space="preserve" y="-112.7461" clip-path="url(#clipPath2)" stroke="none">Joe</text>
      <text x="132.9961" xml:space="preserve" y="-98.0449" clip-path="url(#clipPath2)" stroke="none">.7</text>
      <path fill="none" d="M-96.125 129.7988 L-96.125 143.7988" clip-path="url(#clipPath2)"/>
      <path d="M-96.125 151.7988 L-91.125 139.7988 L-96.125 142.7988 L-101.125 139.7988 Z" clip-path="url(#clipPath2)" stroke="none"/>
      <path fill="none" d="M-96.125 -5.0059 L-96.125 16.9941" clip-path="url(#clipPath2)"/>
      <path d="M-96.125 24.9941 L-91.125 12.9941 L-96.125 15.9941 L-101.125 12.9941 Z" clip-path="url(#clipPath2)" stroke="none"/>
      <path fill="none" d="M-96.125 58.3965 L-96.125 88.3965" clip-path="url(#clipPath2)"/>
      <path d="M-96.125 96.3965 L-91.125 84.3965 L-96.125 87.3965 L-101.125 84.3965 Z" clip-path="url(#clipPath2)" stroke="none"/>
      <path fill="none" d="M-96.125 -68.4082 L-96.125 -46.4082" clip-path="url(#clipPath2)"/>
      <path d="M-96.125 -38.4082 L-91.125 -50.4082 L-96.125 -47.4082 L-101.125 -50.4082 Z" clip-path="url(#clipPath2)" stroke="none"/>
      <path fill="none" d="M-96.125 -121.207 L-96.125 -109.8105" clip-path="url(#clipPath2)"/>
      <path d="M-96.125 -101.8105 L-91.125 -113.8105 L-96.125 -110.8105 L-101.125 -113.8105 Z" clip-path="url(#clipPath2)" stroke="none"/>
    </g>
  </g>
</svg>
