<svg xmlns="http://www.w3.org/2000/svg" xmlns:xlink="http://www.w3.org/1999/xlink" width="996" height="728" fill="#000" fill-opacity="1" stroke="#000" stroke-dasharray="none" stroke-dashoffset="0" stroke-linecap="square" stroke-linejoin="miter" stroke-miterlimit="10" stroke-opacity="1" stroke-width="1" color-interpolation="auto" color-rendering="auto" font-family="'Dialog'" font-size="12" font-style="normal" font-weight="normal" image-rendering="auto" shape-rendering="auto" text-rendering="auto"><g><defs id="defs1"><clipPath id="clipPath1" clipPathUnits="userSpaceOnUse"><path d="M0 0 L996 0 L996 728 L0 728 L0 0 Z"/></clipPath><clipPath id="clipPath2" clipPathUnits="userSpaceOnUse"><path d="M-279 -404 L717 -404 L717 324 L-279 324 L-279 -404 Z"/></clipPath></defs><g fill="#fff" stroke="#fff" shape-rendering="geometricPrecision" text-rendering="geometricPrecision" transform="translate(279,404)"><rect width="996" height="728" x="-279" y="-404" stroke="none" clip-path="url(#clipPath2)"/></g><g fill="#CFC" stroke="#CFC" shape-rendering="geometricPrecision" text-rendering="geometricPrecision" transform="matrix(1,0,0,1,279,404)"><ellipse cx="49.915" cy="216.098" stroke="none" clip-path="url(#clipPath2)" rx="19.5" ry="14.5"/></g><g stroke-linecap="butt" stroke-miterlimit="1.45" font-family="sans-serif" shape-rendering="geometricPrecision" text-rendering="geometricPrecision" transform="matrix(1,0,0,1,279,404)"><text x="46.578" y="220.811" stroke="none" clip-path="url(#clipPath2)" xml:space="preserve">0</text><ellipse cx="49.915" cy="216.098" fill="none" clip-path="url(#clipPath2)" rx="19.5" ry="14.5"/></g><g fill="#CFC" stroke="#CFC" shape-rendering="geometricPrecision" text-rendering="geometricPrecision" transform="matrix(1,0,0,1,279,404)"><ellipse cx="128.915" cy="216.098" stroke="none" clip-path="url(#clipPath2)" rx="19.5" ry="14.5"/></g><g stroke-linecap="butt" stroke-miterlimit="1.45" font-family="sans-serif" shape-rendering="geometricPrecision" text-rendering="geometricPrecision" transform="matrix(1,0,0,1,279,404)"><text x="125.578" y="220.811" stroke="none" clip-path="url(#clipPath2)" xml:space="preserve">1</text><ellipse cx="128.915" cy="216.098" fill="none" clip-path="url(#clipPath2)" rx="19.5" ry="14.5"/></g><g fill="#CFC" stroke="#CFC" shape-rendering="geometricPrecision" text-rendering="geometricPrecision" transform="matrix(1,0,0,1,279,404)"><ellipse cx="207.915" cy="216.098" stroke="none" clip-path="url(#clipPath2)" rx="19.5" ry="14.5"/></g><g stroke-linecap="butt" stroke-miterlimit="1.45" font-family="sans-serif" shape-rendering="geometricPrecision" text-rendering="geometricPrecision" transform="matrix(1,0,0,1,279,404)"><text x="204.578" y="220.811" stroke="none" clip-path="url(#clipPath2)" xml:space="preserve">2</text><ellipse cx="207.915" cy="216.098" fill="none" clip-path="url(#clipPath2)" rx="19.5" ry="14.5"/></g><g fill="#CFC" stroke="#CFC" shape-rendering="geometricPrecision" text-rendering="geometricPrecision" transform="matrix(1,0,0,1,279,404)"><ellipse cx="286.915" cy="216.098" stroke="none" clip-path="url(#clipPath2)" rx="19.5" ry="14.5"/></g><g stroke-linecap="butt" stroke-miterlimit="1.45" font-family="sans-serif" shape-rendering="geometricPrecision" text-rendering="geometricPrecision" transform="matrix(1,0,0,1,279,404)"><text x="283.578" y="220.811" stroke="none" clip-path="url(#clipPath2)" xml:space="preserve">3</text><ellipse cx="286.915" cy="216.098" fill="none" clip-path="url(#clipPath2)" rx="19.5" ry="14.5"/></g><g fill="#CFC" stroke="#CFC" shape-rendering="geometricPrecision" text-rendering="geometricPrecision" transform="matrix(1,0,0,1,279,404)"><ellipse cx="365.915" cy="216.098" stroke="none" clip-path="url(#clipPath2)" rx="19.5" ry="14.5"/></g><g stroke-linecap="butt" stroke-miterlimit="1.45" font-family="sans-serif" shape-rendering="geometricPrecision" text-rendering="geometricPrecision" transform="matrix(1,0,0,1,279,404)"><text x="362.578" y="220.811" stroke="none" clip-path="url(#clipPath2)" xml:space="preserve">4</text><ellipse cx="365.915" cy="216.098" fill="none" clip-path="url(#clipPath2)" rx="19.5" ry="14.5"/></g><g fill="#CFC" stroke="#CFC" shape-rendering="geometricPrecision" text-rendering="geometricPrecision" transform="matrix(1,0,0,1,279,404)"><ellipse cx="444.915" cy="216.098" stroke="none" clip-path="url(#clipPath2)" rx="19.5" ry="14.5"/></g><g stroke-linecap="butt" stroke-miterlimit="1.45" font-family="sans-serif" shape-rendering="geometricPrecision" text-rendering="geometricPrecision" transform="matrix(1,0,0,1,279,404)"><text x="441.578" y="220.811" stroke="none" clip-path="url(#clipPath2)" xml:space="preserve">5</text><ellipse cx="444.915" cy="216.098" fill="none" clip-path="url(#clipPath2)" rx="19.5" ry="14.5"/></g><g fill="#CFC" stroke="#CFC" shape-rendering="geometricPrecision" text-rendering="geometricPrecision" transform="matrix(1,0,0,1,279,404)"><ellipse cx="523.915" cy="216.098" stroke="none" clip-path="url(#clipPath2)" rx="19.5" ry="14.5"/></g><g stroke-linecap="butt" stroke-miterlimit="1.45" font-family="sans-serif" shape-rendering="geometricPrecision" text-rendering="geometricPrecision" transform="matrix(1,0,0,1,279,404)"><text x="520.578" y="220.811" stroke="none" clip-path="url(#clipPath2)" xml:space="preserve">6</text><ellipse cx="523.915" cy="216.098" fill="none" clip-path="url(#clipPath2)" rx="19.5" ry="14.5"/></g><g fill="#CFC" stroke="#CFC" shape-rendering="geometricPrecision" text-rendering="geometricPrecision" transform="matrix(1,0,0,1,279,404)"><ellipse cx="602.915" cy="216.098" stroke="none" clip-path="url(#clipPath2)" rx="19.5" ry="14.5"/></g><g stroke-linecap="butt" stroke-miterlimit="1.45" font-family="sans-serif" shape-rendering="geometricPrecision" text-rendering="geometricPrecision" transform="matrix(1,0,0,1,279,404)"><text x="599.578" y="220.811" stroke="none" clip-path="url(#clipPath2)" xml:space="preserve">7</text><ellipse cx="602.915" cy="216.098" fill="none" clip-path="url(#clipPath2)" rx="19.5" ry="14.5"/></g><g fill="#CFC" stroke="#CFC" shape-rendering="geometricPrecision" text-rendering="geometricPrecision" transform="matrix(1,0,0,1,279,404)"><ellipse cx="681.915" cy="216.098" stroke="none" clip-path="url(#clipPath2)" rx="19.5" ry="14.5"/></g><g stroke-linecap="butt" stroke-miterlimit="1.45" font-family="sans-serif" shape-rendering="geometricPrecision" text-rendering="geometricPrecision" transform="matrix(1,0,0,1,279,404)"><text x="678.578" y="220.811" stroke="none" clip-path="url(#clipPath2)" xml:space="preserve">8</text><ellipse cx="681.915" cy="216.098" fill="none" clip-path="url(#clipPath2)" rx="19.5" ry="14.5"/></g><g fill="#CFC" stroke="#CFC" shape-rendering="geometricPrecision" text-rendering="geometricPrecision" transform="matrix(1,0,0,1,279,404)"><ellipse cx="591.5" cy="104.538" stroke="none" clip-path="url(#clipPath2)" rx="19.5" ry="14.5"/></g><g stroke-linecap="butt" stroke-miterlimit="1.45" font-family="sans-serif" shape-rendering="geometricPrecision" text-rendering="geometricPrecision" transform="matrix(1,0,0,1,279,404)"><text x="588.163" y="109.252" stroke="none" clip-path="url(#clipPath2)" xml:space="preserve">7</text><ellipse cx="591.5" cy="104.538" fill="none" clip-path="url(#clipPath2)" rx="19.5" ry="14.5"/></g><g fill="#CFC" stroke="#CFC" shape-rendering="geometricPrecision" text-rendering="geometricPrecision" transform="matrix(1,0,0,1,279,404)"><ellipse cx="670.5" cy="104.538" stroke="none" clip-path="url(#clipPath2)" rx="19.5" ry="14.5"/></g><g stroke-linecap="butt" stroke-miterlimit="1.45" font-family="sans-serif" shape-rendering="geometricPrecision" text-rendering="geometricPrecision" transform="matrix(1,0,0,1,279,404)"><text x="667.163" y="109.252" stroke="none" clip-path="url(#clipPath2)" xml:space="preserve">8</text><ellipse cx="670.5" cy="104.538" fill="none" clip-path="url(#clipPath2)" rx="19.5" ry="14.5"/></g><g fill="#CFC" stroke="#CFC" shape-rendering="geometricPrecision" text-rendering="geometricPrecision" transform="matrix(1,0,0,1,279,404)"><ellipse cx="428.5" cy="-7.022" stroke="none" clip-path="url(#clipPath2)" rx="19.5" ry="14.5"/></g><g stroke-linecap="butt" stroke-miterlimit="1.45" font-family="sans-serif" shape-rendering="geometricPrecision" text-rendering="geometricPrecision" transform="matrix(1,0,0,1,279,404)"><text x="425.163" y="-2.308" stroke="none" clip-path="url(#clipPath2)" xml:space="preserve">5</text><ellipse cx="428.5" cy="-7.022" fill="none" clip-path="url(#clipPath2)" rx="19.5" ry="14.5"/></g><g fill="#CFC" stroke="#CFC" shape-rendering="geometricPrecision" text-rendering="geometricPrecision" transform="matrix(1,0,0,1,279,404)"><ellipse cx="507.5" cy="-7.022" stroke="none" clip-path="url(#clipPath2)" rx="19.5" ry="14.5"/></g><g stroke-linecap="butt" stroke-miterlimit="1.45" font-family="sans-serif" shape-rendering="geometricPrecision" text-rendering="geometricPrecision" transform="matrix(1,0,0,1,279,404)"><text x="504.163" y="-2.308" stroke="none" clip-path="url(#clipPath2)" xml:space="preserve">6</text><ellipse cx="507.5" cy="-7.022" fill="none" clip-path="url(#clipPath2)" rx="19.5" ry="14.5"/></g><g fill="#CFC" stroke="#CFC" shape-rendering="geometricPrecision" text-rendering="geometricPrecision" transform="matrix(1,0,0,1,279,404)"><ellipse cx="586.5" cy="-7.022" stroke="none" clip-path="url(#clipPath2)" rx="19.5" ry="14.5"/></g><g stroke-linecap="butt" stroke-miterlimit="1.45" font-family="sans-serif" shape-rendering="geometricPrecision" text-rendering="geometricPrecision" transform="matrix(1,0,0,1,279,404)"><text x="583.163" y="-2.308" stroke="none" clip-path="url(#clipPath2)" xml:space="preserve">7</text><ellipse cx="586.5" cy="-7.022" fill="none" clip-path="url(#clipPath2)" rx="19.5" ry="14.5"/></g><g fill="#F63" stroke="#F63" shape-rendering="geometricPrecision" text-rendering="geometricPrecision" transform="matrix(1,0,0,1,279,404)"><ellipse cx="665.5" cy="-7.022" stroke="none" clip-path="url(#clipPath2)" rx="19.5" ry="14.5"/></g><g stroke-linecap="butt" stroke-miterlimit="1.45" font-family="sans-serif" shape-rendering="geometricPrecision" text-rendering="geometricPrecision" transform="matrix(1,0,0,1,279,404)"><text x="662.163" y="-2.308" stroke="none" clip-path="url(#clipPath2)" xml:space="preserve">8</text><ellipse cx="665.5" cy="-7.022" fill="none" clip-path="url(#clipPath2)" rx="19.5" ry="14.5"/></g><g fill="#CFC" stroke="#CFC" shape-rendering="geometricPrecision" text-rendering="geometricPrecision" transform="matrix(1,0,0,1,279,404)"><ellipse cx="270.5" cy="-109.538" stroke="none" clip-path="url(#clipPath2)" rx="19.5" ry="14.5"/></g><g stroke-linecap="butt" stroke-miterlimit="1.45" font-family="sans-serif" shape-rendering="geometricPrecision" text-rendering="geometricPrecision" transform="matrix(1,0,0,1,279,404)"><text x="267.163" y="-104.825" stroke="none" clip-path="url(#clipPath2)" xml:space="preserve">3</text><ellipse cx="270.5" cy="-109.538" fill="none" clip-path="url(#clipPath2)" rx="19.5" ry="14.5"/></g><g fill="#CFC" stroke="#CFC" shape-rendering="geometricPrecision" text-rendering="geometricPrecision" transform="matrix(1,0,0,1,279,404)"><ellipse cx="349.5" cy="-109.538" stroke="none" clip-path="url(#clipPath2)" rx="19.5" ry="14.5"/></g><g stroke-linecap="butt" stroke-miterlimit="1.45" font-family="sans-serif" shape-rendering="geometricPrecision" text-rendering="geometricPrecision" transform="matrix(1,0,0,1,279,404)"><text x="346.163" y="-104.825" stroke="none" clip-path="url(#clipPath2)" xml:space="preserve">4</text><ellipse cx="349.5" cy="-109.538" fill="none" clip-path="url(#clipPath2)" rx="19.5" ry="14.5"/></g><g fill="#CFC" stroke="#CFC" shape-rendering="geometricPrecision" text-rendering="geometricPrecision" transform="matrix(1,0,0,1,279,404)"><ellipse cx="428.5" cy="-109.538" stroke="none" clip-path="url(#clipPath2)" rx="19.5" ry="14.5"/></g><g stroke-linecap="butt" stroke-miterlimit="1.45" font-family="sans-serif" shape-rendering="geometricPrecision" text-rendering="geometricPrecision" transform="matrix(1,0,0,1,279,404)"><text x="425.163" y="-104.825" stroke="none" clip-path="url(#clipPath2)" xml:space="preserve">5</text><ellipse cx="428.5" cy="-109.538" fill="none" clip-path="url(#clipPath2)" rx="19.5" ry="14.5"/></g><g fill="#F63" stroke="#F63" shape-rendering="geometricPrecision" text-rendering="geometricPrecision" transform="matrix(1,0,0,1,279,404)"><ellipse cx="507.5" cy="-109.538" stroke="none" clip-path="url(#clipPath2)" rx="19.5" ry="14.5"/></g><g stroke-linecap="butt" stroke-miterlimit="1.45" font-family="sans-serif" shape-rendering="geometricPrecision" text-rendering="geometricPrecision" transform="matrix(1,0,0,1,279,404)"><text x="504.163" y="-104.825" stroke="none" clip-path="url(#clipPath2)" xml:space="preserve">6</text><ellipse cx="507.5" cy="-109.538" fill="none" clip-path="url(#clipPath2)" rx="19.5" ry="14.5"/></g><g fill="#F63" stroke="#F63" shape-rendering="geometricPrecision" text-rendering="geometricPrecision" transform="matrix(1,0,0,1,279,404)"><ellipse cx="586.5" cy="-109.538" stroke="none" clip-path="url(#clipPath2)" rx="19.5" ry="14.5"/></g><g stroke-linecap="butt" stroke-miterlimit="1.45" font-family="sans-serif" shape-rendering="geometricPrecision" text-rendering="geometricPrecision" transform="matrix(1,0,0,1,279,404)"><text x="583.163" y="-104.825" stroke="none" clip-path="url(#clipPath2)" xml:space="preserve">7</text><ellipse cx="586.5" cy="-109.538" fill="none" clip-path="url(#clipPath2)" rx="19.5" ry="14.5"/></g><g fill="#CFC" stroke="#CFC" shape-rendering="geometricPrecision" text-rendering="geometricPrecision" transform="matrix(1,0,0,1,279,404)"><ellipse cx="112.5" cy="-222.364" stroke="none" clip-path="url(#clipPath2)" rx="19.5" ry="14.5"/></g><g stroke-linecap="butt" stroke-miterlimit="1.45" font-family="sans-serif" shape-rendering="geometricPrecision" text-rendering="geometricPrecision" transform="matrix(1,0,0,1,279,404)"><text x="109.163" y="-217.65" stroke="none" clip-path="url(#clipPath2)" xml:space="preserve">1</text><ellipse cx="112.5" cy="-222.364" fill="none" clip-path="url(#clipPath2)" rx="19.5" ry="14.5"/></g><g fill="#CFC" stroke="#CFC" shape-rendering="geometricPrecision" text-rendering="geometricPrecision" transform="matrix(1,0,0,1,279,404)"><ellipse cx="191.5" cy="-222.364" stroke="none" clip-path="url(#clipPath2)" rx="19.5" ry="14.5"/></g><g stroke-linecap="butt" stroke-miterlimit="1.45" font-family="sans-serif" shape-rendering="geometricPrecision" text-rendering="geometricPrecision" transform="matrix(1,0,0,1,279,404)"><text x="188.163" y="-217.65" stroke="none" clip-path="url(#clipPath2)" xml:space="preserve">2</text><ellipse cx="191.5" cy="-222.364" fill="none" clip-path="url(#clipPath2)" rx="19.5" ry="14.5"/></g><g fill="#CFC" stroke="#CFC" shape-rendering="geometricPrecision" text-rendering="geometricPrecision" transform="matrix(1,0,0,1,279,404)"><ellipse cx="270.5" cy="-222.364" stroke="none" clip-path="url(#clipPath2)" rx="19.5" ry="14.5"/></g><g stroke-linecap="butt" stroke-miterlimit="1.45" font-family="sans-serif" shape-rendering="geometricPrecision" text-rendering="geometricPrecision" transform="matrix(1,0,0,1,279,404)"><text x="267.163" y="-217.65" stroke="none" clip-path="url(#clipPath2)" xml:space="preserve">3</text><ellipse cx="270.5" cy="-222.364" fill="none" clip-path="url(#clipPath2)" rx="19.5" ry="14.5"/></g><g fill="#F63" stroke="#F63" shape-rendering="geometricPrecision" text-rendering="geometricPrecision" transform="matrix(1,0,0,1,279,404)"><ellipse cx="349.5" cy="-222.364" stroke="none" clip-path="url(#clipPath2)" rx="19.5" ry="14.5"/></g><g stroke-linecap="butt" stroke-miterlimit="1.45" font-family="sans-serif" shape-rendering="geometricPrecision" text-rendering="geometricPrecision" transform="matrix(1,0,0,1,279,404)"><text x="346.163" y="-217.65" stroke="none" clip-path="url(#clipPath2)" xml:space="preserve">4</text><ellipse cx="349.5" cy="-222.364" fill="none" clip-path="url(#clipPath2)" rx="19.5" ry="14.5"/></g><g fill="#CFC" stroke="#CFC" shape-rendering="geometricPrecision" text-rendering="geometricPrecision" transform="matrix(1,0,0,1,279,404)"><ellipse cx="33.5" cy="-361.219" stroke="none" clip-path="url(#clipPath2)" rx="19.5" ry="14.5"/></g><g stroke-linecap="butt" stroke-miterlimit="1.45" font-family="sans-serif" shape-rendering="geometricPrecision" text-rendering="geometricPrecision" transform="matrix(1,0,0,1,279,404)"><text x="30.163" y="-356.505" stroke="none" clip-path="url(#clipPath2)" xml:space="preserve">0</text><ellipse cx="33.5" cy="-361.219" fill="none" clip-path="url(#clipPath2)" rx="19.5" ry="14.5"/></g><g fill="#CFC" stroke="#CFC" shape-rendering="geometricPrecision" text-rendering="geometricPrecision" transform="matrix(1,0,0,1,279,404)"><ellipse cx="112.5" cy="-361.219" stroke="none" clip-path="url(#clipPath2)" rx="19.5" ry="14.5"/></g><g stroke-linecap="butt" stroke-miterlimit="1.45" font-family="sans-serif" shape-rendering="geometricPrecision" text-rendering="geometricPrecision" transform="matrix(1,0,0,1,279,404)"><text x="109.163" y="-356.505" stroke="none" clip-path="url(#clipPath2)" xml:space="preserve">1</text><ellipse cx="112.5" cy="-361.219" fill="none" clip-path="url(#clipPath2)" rx="19.5" ry="14.5"/></g><g fill="#F63" stroke="#F63" shape-rendering="geometricPrecision" text-rendering="geometricPrecision" transform="matrix(1,0,0,1,279,404)"><ellipse cx="191.5" cy="-361.219" stroke="none" clip-path="url(#clipPath2)" rx="19.5" ry="14.5"/></g><g stroke-linecap="butt" stroke-miterlimit="1.45" font-family="sans-serif" shape-rendering="geometricPrecision" text-rendering="geometricPrecision" transform="matrix(1,0,0,1,279,404)"><text x="188.163" y="-356.505" stroke="none" clip-path="url(#clipPath2)" xml:space="preserve">2</text><ellipse cx="191.5" cy="-361.219" fill="none" clip-path="url(#clipPath2)" rx="19.5" ry="14.5"/><text x="-244.581" y="-374.758" stroke="none" clip-path="url(#clipPath2)" xml:space="preserve">emma:stream-status=&quot;begin&quot;</text><text x="-244.581" y="-360.057" stroke="none" clip-path="url(#clipPath2)" xml:space="preserve">emma:stream-seq-num=&quot;0&quot;</text><text x="-244.581" y="-345.356" stroke="none" clip-path="url(#clipPath2)" xml:space="preserve">emma:stream-full-result=&quot;true&quot;</text><text x="-244.581" y="-330.654" stroke="none" clip-path="url(#clipPath2)" xml:space="preserve">emma:stream-token-span=&quot;0-2&quot;</text><text x="-244.581" y="-315.953" stroke="none" clip-path="url(#clipPath2)" xml:space="preserve">emma:stream-token-immortals=&quot;true false&quot;</text><text x="-244.581" y="-301.252" stroke="none" clip-path="url(#clipPath2)" xml:space="preserve">emma:stream-immortal-vertex=&quot;1&quot;</text><text x="-244.581" y="-254.403" stroke="none" clip-path="url(#clipPath2)" xml:space="preserve">emma:streamStatus=&quot;in-progress&quot;</text><text x="-244.581" y="-239.702" stroke="none" clip-path="url(#clipPath2)" xml:space="preserve">emma:streamSeqNum=&quot;1&quot;</text><text x="-244.581" y="-225" stroke="none" clip-path="url(#clipPath2)" xml:space="preserve">emma:stream-full-result=&quot;false&quot;</text><text x="-244.581" y="-210.299" stroke="none" clip-path="url(#clipPath2)" xml:space="preserve">emma:stream-token-span=&quot;1-4&quot;</text><text x="-244.581" y="-195.598" stroke="none" clip-path="url(#clipPath2)" xml:space="preserve">emma:stream-token-immortals=&quot;true true false&quot;</text><text x="-244.581" y="-180.897" stroke="none" clip-path="url(#clipPath2)" xml:space="preserve">emma:stream-immortal-vertex=&quot;3&quot;</text><text x="-244.581" y="215.662" stroke="none" clip-path="url(#clipPath2)" xml:space="preserve">emma:streamStatus=&quot;end&quot;</text><text x="-244.581" y="230.363" stroke="none" clip-path="url(#clipPath2)" xml:space="preserve">emma:stream-full-result=&quot;true&quot;</text><text x="-244.581" y="245.065" stroke="none" clip-path="url(#clipPath2)" xml:space="preserve">emma:streamSeqNum=&quot;5&quot;</text><text x="-244.581" y="259.766" stroke="none" clip-path="url(#clipPath2)" xml:space="preserve">emma:stream-full-result=&quot;true&quot;</text><text x="-244.581" y="274.467" stroke="none" clip-path="url(#clipPath2)" xml:space="preserve">emma:stream-token-span=&quot;0-8&quot;</text><text x="-244.581" y="289.168" stroke="none" clip-path="url(#clipPath2)" xml:space="preserve">emma:stream-token-immortals=&quot;true true true true true true true true true&quot;</text><text x="-244.581" y="303.869" stroke="none" clip-path="url(#clipPath2)" xml:space="preserve">emma:stream-immortal-vertex=&quot;8&quot;</text><text x="-244.581" y="-141.577" stroke="none" clip-path="url(#clipPath2)" xml:space="preserve">emma:streamStatus=&quot;in-progress&quot;</text><text x="-244.581" y="-126.876" stroke="none" clip-path="url(#clipPath2)" xml:space="preserve">emma:streamSeqNum=&quot;2&quot;</text><text x="-244.581" y="-112.175" stroke="none" clip-path="url(#clipPath2)" xml:space="preserve">emma:stream-full-result=&quot;false&quot;</text><text x="-244.581" y="-97.474" stroke="none" clip-path="url(#clipPath2)" xml:space="preserve">emma:stream-token-span=&quot;3-7&quot;</text><text x="-244.581" y="-82.773" stroke="none" clip-path="url(#clipPath2)" xml:space="preserve">emma:stream-token-immortals=&quot;true true false false&quot;</text><text x="-244.581" y="-68.072" stroke="none" clip-path="url(#clipPath2)" xml:space="preserve">emma:stream-immortal-vertex=&quot;5&quot;</text><text x="-244.581" y="-28.752" stroke="none" clip-path="url(#clipPath2)" xml:space="preserve">emma:streamStatus=&quot;in-progress&quot;</text><text x="-244.581" y="-14.051" stroke="none" clip-path="url(#clipPath2)" xml:space="preserve">emma:streamSeqNum=&quot;3&quot;</text><text x="-244.581" y=".65" stroke="none" clip-path="url(#clipPath2)" xml:space="preserve">emma:stream-full-result=&quot;false&quot;</text><text x="-244.581" y="15.352" stroke="none" clip-path="url(#clipPath2)" xml:space="preserve">emma:stream-token-span=&quot;5-8&quot;</text><text x="-244.581" y="30.053" stroke="none" clip-path="url(#clipPath2)" xml:space="preserve">emma:stream-token-immortals=&quot;true true true false&quot;</text><text x="-244.581" y="44.754" stroke="none" clip-path="url(#clipPath2)" xml:space="preserve">emma:stream-immortal-vertex=&quot;7&quot;</text><text x="-244.581" y="93.455" stroke="none" clip-path="url(#clipPath2)" xml:space="preserve">emma:streamStatus=&quot;in-progress&quot;</text><text x="-244.581" y="108.156" stroke="none" clip-path="url(#clipPath2)" xml:space="preserve">emma:streamSeqNum=&quot;4&quot;</text><text x="-244.581" y="122.857" stroke="none" clip-path="url(#clipPath2)" xml:space="preserve">emma:stream-full-result=&quot;false&quot;</text><text x="-244.581" y="137.559" stroke="none" clip-path="url(#clipPath2)" xml:space="preserve">emma:stream-token-span=&quot;7-8&quot;</text><text x="-244.581" y="152.26" stroke="none" clip-path="url(#clipPath2)" xml:space="preserve">emma:stream-token-immortals=&quot;true&quot;</text><text x="-244.581" y="166.961" stroke="none" clip-path="url(#clipPath2)" xml:space="preserve">emma:stream-immortal-vertex=&quot;8&quot;</text><path fill="none" d="M69.415 216.0977 L101.415 216.0977" clip-path="url(#clipPath2)"/><path stroke="none" d="M109.415 216.0977 L97.415 211.0977 L100.415 216.0977 L97.415 221.0977 Z" clip-path="url(#clipPath2)"/><text x="83.415" y="243.461" stroke="none" clip-path="url(#clipPath2)" font-weight="bold" xml:space="preserve">Hi</text><text x="84.411" y="258.162" stroke="none" clip-path="url(#clipPath2)" font-weight="bold" xml:space="preserve">.9</text><path fill="none" d="M148.415 216.0977 L180.415 216.0977" clip-path="url(#clipPath2)"/><path stroke="none" d="M188.415 216.0977 L176.415 211.0977 L179.415 216.0977 L176.415 221.0977 Z" clip-path="url(#clipPath2)"/><text x="158.076" y="243.461" stroke="none" clip-path="url(#clipPath2)" font-weight="bold" xml:space="preserve">Joe</text><text x="163.411" y="258.162" stroke="none" clip-path="url(#clipPath2)" font-weight="bold" xml:space="preserve">.7</text><path fill="none" d="M227.415 216.0977 L259.415 216.0977" clip-path="url(#clipPath2)"/><path stroke="none" d="M267.415 216.0977 L255.415 211.0977 L258.415 216.0977 L255.415 221.0977 Z" clip-path="url(#clipPath2)"/><text x="238.415" y="243.461" stroke="none" clip-path="url(#clipPath2)" font-weight="bold" xml:space="preserve">the</text><text x="242.411" y="258.162" stroke="none" clip-path="url(#clipPath2)" font-weight="bold" xml:space="preserve">.9</text><path fill="none" d="M306.415 216.0977 L338.415 216.0977" clip-path="url(#clipPath2)"/><path stroke="none" d="M346.415 216.0977 L334.415 211.0977 L337.415 216.0977 L334.415 221.0977 Z" clip-path="url(#clipPath2)"/><text x="303.911" y="243.461" stroke="none" clip-path="url(#clipPath2)" font-weight="bold" xml:space="preserve">meeting</text><text x="321.911" y="258.162" stroke="none" clip-path="url(#clipPath2)" font-weight="bold" xml:space="preserve">.9</text><path fill="none" d="M385.415 216.0977 L417.415 216.0977" clip-path="url(#clipPath2)"/><path stroke="none" d="M425.415 216.0977 L413.415 211.0977 L416.415 216.0977 L413.415 221.0977 Z" clip-path="url(#clipPath2)"/><text x="395.076" y="243.461" stroke="none" clip-path="url(#clipPath2)" font-weight="bold" xml:space="preserve">has</text><text x="397.074" y="258.162" stroke="none" clip-path="url(#clipPath2)" font-weight="bold" xml:space="preserve">.89</text><path fill="none" d="M464.415 216.0977 L496.415 216.0977" clip-path="url(#clipPath2)"/><path stroke="none" d="M504.415 216.0977 L492.415 211.0977 L495.415 216.0977 L492.415 221.0977 Z" clip-path="url(#clipPath2)"/><text x="472.418" y="243.461" stroke="none" clip-path="url(#clipPath2)" font-weight="bold" xml:space="preserve">now</text><text x="476.074" y="258.162" stroke="none" clip-path="url(#clipPath2)" font-weight="bold" xml:space="preserve">.95</text><path fill="none" d="M543.4541 216.0977 L575.415 216.0977" clip-path="url(#clipPath2)"/><path stroke="none" d="M583.415 216.0977 L571.415 211.0977 L574.415 216.0977 L571.415 221.0977 Z" clip-path="url(#clipPath2)"/><text x="544.576" y="243.461" stroke="none" clip-path="url(#clipPath2)" font-weight="bold" xml:space="preserve">moved</text><text x="555.574" y="258.162" stroke="none" clip-path="url(#clipPath2)" font-weight="bold" xml:space="preserve">.91</text><path fill="none" d="M622.415 216.0977 L654.415 216.0977" clip-path="url(#clipPath2)"/><path stroke="none" d="M662.415 216.0977 L650.415 211.0977 L653.415 216.0977 L650.415 221.0977 Z" clip-path="url(#clipPath2)"/><text x="611.242" y="243.461" stroke="none" clip-path="url(#clipPath2)" font-weight="bold" xml:space="preserve">downstairs</text><text x="637.911" y="258.162" stroke="none" clip-path="url(#clipPath2)" font-weight="bold" xml:space="preserve">.8</text><path fill="none" d="M611 104.5378 L643 104.5378" clip-path="url(#clipPath2)"/><path stroke="none" d="M651 104.5378 L639 99.5378 L642 104.5378 L639 109.5378 Z" clip-path="url(#clipPath2)"/><text x="599.827" y="131.901" stroke="none" clip-path="url(#clipPath2)" font-weight="bold" xml:space="preserve">downstairs</text><text x="626.496" y="146.602" stroke="none" clip-path="url(#clipPath2)" font-weight="bold" xml:space="preserve">.9</text><path fill="none" d="M448 -7.0221 L480 -7.0221" clip-path="url(#clipPath2)"/><path stroke="none" d="M488 -7.0221 L476 -12.0221 L479 -7.0221 L476 -2.0221 Z" clip-path="url(#clipPath2)"/><text x="456.003" y="20.341" stroke="none" clip-path="url(#clipPath2)" font-weight="bold" xml:space="preserve">now</text><text x="459.659" y="35.042" stroke="none" clip-path="url(#clipPath2)" font-weight="bold" xml:space="preserve">.95</text><path fill="none" d="M527 -7.0221 L559 -7.0221" clip-path="url(#clipPath2)"/><path stroke="none" d="M567 -7.0221 L555 -12.0221 L558 -7.0221 L555 -2.0221 Z" clip-path="url(#clipPath2)"/><text x="528.161" y="20.341" stroke="none" clip-path="url(#clipPath2)" font-weight="bold" xml:space="preserve">moved</text><text x="539.159" y="35.042" stroke="none" clip-path="url(#clipPath2)" font-weight="bold" xml:space="preserve">.91</text><path fill="none" d="M606 -7.0221 L638 -7.0221" clip-path="url(#clipPath2)"/><path stroke="none" d="M646 -7.0221 L634 -12.0221 L637 -7.0221 L634 -2.0221 Z" clip-path="url(#clipPath2)"/><text x="620.996" y="20.341" stroke="none" clip-path="url(#clipPath2)" xml:space="preserve">to</text><text x="620.996" y="35.042" stroke="none" clip-path="url(#clipPath2)" xml:space="preserve">.5</text><path fill="none" d="M290 -109.5383 L322 -109.5383" clip-path="url(#clipPath2)"/><path stroke="none" d="M330 -109.5383 L318 -114.5383 L321 -109.5383 L318 -104.5383 Z" clip-path="url(#clipPath2)"/><text x="287.496" y="-82.175" stroke="none" clip-path="url(#clipPath2)" font-weight="bold" xml:space="preserve">meeting</text><text x="302.159" y="-67.474" stroke="none" clip-path="url(#clipPath2)" font-weight="bold" xml:space="preserve">.95</text><path fill="none" d="M369 -109.5383 L401 -109.5383" clip-path="url(#clipPath2)"/><path stroke="none" d="M409 -109.5383 L397 -114.5383 L400 -109.5383 L397 -104.5383 Z" clip-path="url(#clipPath2)"/><text x="378.661" y="-82.175" stroke="none" clip-path="url(#clipPath2)" font-weight="bold" xml:space="preserve">has</text><text x="380.659" y="-67.474" stroke="none" clip-path="url(#clipPath2)" font-weight="bold" xml:space="preserve">.91</text><path fill="none" d="M448 -109.5383 L480 -109.5383" clip-path="url(#clipPath2)"/><path stroke="none" d="M488 -109.5383 L476 -114.5383 L479 -109.5383 L476 -104.5383 Z" clip-path="url(#clipPath2)"/><text x="448.493" y="-82.175" stroke="none" clip-path="url(#clipPath2)" xml:space="preserve">remove</text><text x="460.159" y="-67.474" stroke="none" clip-path="url(#clipPath2)" xml:space="preserve">.60</text><path fill="none" d="M527 -109.5383 L559 -109.5383" clip-path="url(#clipPath2)"/><path stroke="none" d="M567 -109.5383 L555 -114.5383 L558 -109.5383 L555 -104.5383 Z" clip-path="url(#clipPath2)"/><text x="537.663" y="-82.175" stroke="none" clip-path="url(#clipPath2)" xml:space="preserve">two</text><text x="538.659" y="-67.474" stroke="none" clip-path="url(#clipPath2)" xml:space="preserve">.78</text><path fill="none" d="M132 -222.3638 L164 -222.3638" clip-path="url(#clipPath2)"/><path stroke="none" d="M172 -222.3638 L160 -227.3638 L163 -222.3638 L160 -217.3638 Z" clip-path="url(#clipPath2)"/><text x="141.661" y="-195" stroke="none" clip-path="url(#clipPath2)" font-weight="bold" xml:space="preserve">Joe</text><text x="146.996" y="-180.299" stroke="none" clip-path="url(#clipPath2)" font-weight="bold" xml:space="preserve">.9</text><path fill="none" d="M211 -222.3638 L243 -222.3638" clip-path="url(#clipPath2)"/><path stroke="none" d="M251 -222.3638 L239 -227.3638 L242 -222.3638 L239 -217.3638 Z" clip-path="url(#clipPath2)"/><text x="222" y="-195" stroke="none" clip-path="url(#clipPath2)" font-weight="bold" xml:space="preserve">the</text><text x="222.659" y="-180.299" stroke="none" clip-path="url(#clipPath2)" font-weight="bold" xml:space="preserve">.77</text><path fill="none" d="M290 -222.3638 L322 -222.3638" clip-path="url(#clipPath2)"/><path stroke="none" d="M330 -222.3638 L318 -227.3638 L321 -222.3638 L318 -217.3638 Z" clip-path="url(#clipPath2)"/><text x="288.152" y="-195" stroke="none" clip-path="url(#clipPath2)" xml:space="preserve">tweeting</text><text x="302.159" y="-180.299" stroke="none" clip-path="url(#clipPath2)" xml:space="preserve">.91</text><path fill="none" d="M53 -361.2188 L85 -361.2188" clip-path="url(#clipPath2)"/><path stroke="none" d="M93 -361.2188 L81 -366.2188 L84 -361.2188 L81 -356.2188 Z" clip-path="url(#clipPath2)"/><text x="67" y="-333.856" stroke="none" clip-path="url(#clipPath2)" font-weight="bold" xml:space="preserve">Hi</text><text x="67.996" y="-319.154" stroke="none" clip-path="url(#clipPath2)" font-weight="bold" xml:space="preserve">.9</text><path fill="none" d="M132 -361.2188 L164 -361.2188" clip-path="url(#clipPath2)"/><path stroke="none" d="M172 -361.2188 L160 -366.2188 L163 -361.2188 L160 -356.2188 Z" clip-path="url(#clipPath2)"/><text x="142.326" y="-333.856" stroke="none" clip-path="url(#clipPath2)" xml:space="preserve">Joe</text><text x="146.996" y="-319.154" stroke="none" clip-path="url(#clipPath2)" xml:space="preserve">.7</text><path fill="none" d="M-247.1667 -302 L-254.4483 -296.1354 L-259.6277 -290.2988 L-262.7046 -284.4901 L-263.6791 -278.7094 L-262.5513 -272.9565 L-259.3211 -267.2317 L-253.9885 -261.5347 L-252.9443 -260.7385" clip-path="url(#clipPath2)"/><path stroke="none" d="M-246.5826 -255.8878 L-253.0935 -267.1399 L-253.7395 -261.3448 L-259.1568 -259.1878 Z" clip-path="url(#clipPath2)"/><path fill="none" d="M-246.6016 -177.0439 L-253.5475 -171.7863 L-258.5282 -166.5083 L-261.5163 -161.2306 L-262.5118 -155.9531 L-261.5149 -150.6759 L-258.5253 -145.399 L-253.5433 -140.1224 L-252.9759 -139.6932" clip-path="url(#clipPath2)"/><path stroke="none" d="M-246.5959 -134.8666 L-253.1493 -146.0939 L-253.7734 -140.2965 L-259.1825 -138.1189 Z" clip-path="url(#clipPath2)"/><path fill="none" d="M-246.6151 -68.629 L-252.766 -63.5957 L-257.1595 -58.5624 L-259.7955 -53.5292 L-260.674 -48.496 L-259.7951 -43.463 L-257.1588 -38.4299 L-252.7997 -33.4368 L-252.7223 -33.3735" clip-path="url(#clipPath2)"/><path stroke="none" d="M-246.5363 -28.3007 L-252.6448 -39.7761 L-253.4955 -34.0076 L-258.9858 -32.0437 Z" clip-path="url(#clipPath2)"/><path fill="none" d="M-250.1667 42 L-255.423 48.8605 L-258.9633 55.5108 L-260.7875 61.951 L-260.8955 68.1811 L-259.2875 74.201 L-255.9633 80.0108 L-252.5638 83.7876 L-252.4857 83.8499" clip-path="url(#clipPath2)"/><path stroke="none" d="M-246.4935 89.1504 L-252.169 77.4547 L-253.2347 83.1874 L-258.7945 84.9448 Z" clip-path="url(#clipPath2)"/><path fill="none" d="M-249.1667 164 L-254.3065 170.125 L-257.9779 176.25 L-260.1807 182.375 L-260.915 188.5 L-260.1807 194.625 L-257.9779 200.75 L-254.3087 206.8714 L-254.2444 206.948" clip-path="url(#clipPath2)"/><path stroke="none" d="M-249.1024 213.0766 L-252.9851 200.67 L-254.8872 206.1819 L-260.6458 207.0975 Z" clip-path="url(#clipPath2)"/></g></g></svg>